<?xml version="1.0" encoding="UTF-8"?><svg id="Layer_1" xmlns="http://www.w3.org/2000/svg" viewBox="0 0 300 90"><defs><style>.cls-1{fill:#fff;}</style></defs><path class="cls-1" d="M20.86,45.42c0,10.37-.09,20.1,.06,29.84,.04,2.68-.66,3.79-3.44,3.4-1.47-.21-2.99-.04-4.62-.04V32.61c2.78,0,5.45-.13,8.09,.09,.69,.06,1.49,1.09,1.89,1.85,3.68,7.13,7.28,14.31,11.08,21.8,.48-.73,.89-1.24,1.18-1.81,3.42-6.67,6.86-13.34,10.21-20.05,.68-1.36,1.44-2.05,3.06-1.94,2.22,.15,4.45,.04,6.89,.04v45.8h-7.65V45.99c-.18-.04-.36-.07-.55-.11-2.74,5.26-5.68,10.42-8.12,15.82-1.25,2.76-3.1,2.75-5.52,2.89-2.4,.14-3.26-1.05-4.14-2.88-2.32-4.83-4.78-9.59-7.2-14.37-.26-.52-.62-.99-1.22-1.93Z"/><path class="cls-1" d="M157.62,43.47v-12.84h7.69v47.96c-2.62-.4-5.34,1.03-7.49-.88-3.37,.63-6.74,1.7-10.14,1.8-6.09,.17-10.57-3.17-11.42-9.15-.78-5.5-.96-11.27-.22-16.76,1.01-7.51,6.12-10.83,14.56-10.67,2.21,.04,4.42,.33,7.02,.53Zm0,6.79c-1.53-.25-2.67-.5-3.81-.59-1.33-.1-2.67-.12-4.01-.07-3.69,.16-5.94,1.98-6.22,5.68-.3,3.98-.27,8.01-.03,12,.2,3.21,2.23,5.33,5.25,5.43,2.44,.08,4.92-.46,7.33-.96,.59-.12,1.41-1.18,1.42-1.81,.1-6.49,.06-12.98,.06-19.68Z"/><path class="cls-1" d="M219.84,63.64h-22.9c-1.42,5.33,.88,8.9,6.02,9.15,4.89,.24,9.8,.05,15.15,.05,0,1.04,.13,2.54-.06,3.99-.08,.59-.78,1.47-1.33,1.58-6.08,1.16-12.2,1.87-18.35,.46-5.04-1.16-8.42-4.27-9.01-9.4-.55-4.75-.88-9.68-.2-14.38,1.25-8.64,7.27-12.84,16.03-12.11,8.61,.72,12.84,4.69,14.06,13.32,.32,2.28,.38,4.59,.59,7.34Zm-8.12-5.19c.13-3.19-.11-6.05-2.89-7.96-2.39-1.65-7.06-1.56-9.44,.05-2.31,1.56-3.23,4.45-2.42,8.12,4.01,0,8.1,0,12.19,0,.79,0,1.57-.12,2.56-.2Z"/><path class="cls-1" d="M93.43,61.37c0,1.87,.21,3.78-.04,5.62-1.37,10.26-8.63,13.5-18.08,12.41-8.28-.96-12.44-5.87-12.7-14.21-.07-2.32-.06-4.65-.02-6.97,.15-9.86,5.22-15,15.05-15.3,10.05-.3,15.75,5.15,15.92,15.23,.02,1.07,0,2.14,0,3.22-.05,0-.1,0-.14,0Zm-23.26,.07c.28,2.27,.33,4.71,.93,7.01,.81,3.07,3.3,4.41,7.15,4.37,3.67-.04,6.42-1.38,6.76-4.44,.51-4.64,.55-9.41,.05-14.05-.35-3.23-3.07-4.62-6.87-4.66-3.88-.04-6.34,1.42-7.17,4.73-.56,2.22-.57,4.58-.85,7.04Z"/><path class="cls-1" d="M129.96,61.42c0,1.52,.13,3.05-.02,4.55-1.08,10.8-7.98,14.46-18,13.46-8.43-.84-12.63-5.79-12.87-14.3-.07-2.41-.06-4.83-.01-7.24,.2-10.11,6.26-15.62,16.4-14.96,9.62,.63,14.38,5.61,14.58,15.26,.02,1.07,0,2.14,0,3.22-.03,0-.05,0-.08,0Zm-23.02-.23c-.06,0-.12,0-.18,0,.09,1.87,.04,3.77,.29,5.62,.51,3.79,2.86,5.8,6.71,6,4.61,.23,7.37-1.32,7.93-5.36,.54-3.85,.61-7.86,.2-11.72-.46-4.4-3.43-6.34-7.98-6.04-4.35,.28-6.61,2.5-6.95,6.95-.11,1.51-.02,3.04-.02,4.55Z"/><path class="cls-1" d="M173.95,30.63c.39-.06,.72-.15,1.06-.15,2.05-.01,4.1,0,6.37,0v47.99h-7.43V30.63Z"/>
 <line x1="265" y1="5" x2="265" y2="85" style="stroke:rgb(255,255,255);stroke-width:2" />
</svg>