<?xml version="1.0" encoding="UTF-8"?><svg id="Layer_1" xmlns="http://www.w3.org/2000/svg" xmlns:xlink="http://www.w3.org/1999/xlink" viewBox="0 0 3498.35 285.88"><defs><style>.cls-1{fill:url(#linear-gradient);}.cls-1,.cls-2,.cls-3,.cls-4,.cls-5{stroke-width:0px;}.cls-2{fill:none;}.cls-3{fill:#fff;}.cls-4{fill:#012b2a;}.cls-5{fill:#97d16d;}</style><linearGradient id="linear-gradient" x1="-3.32" y1="2066.09" x2="3495.08" y2="2066.09" gradientTransform="translate(0 2211.7) scale(1 -1)" gradientUnits="userSpaceOnUse"><stop offset="0" stop-color="#fff"/><stop offset=".2" stop-color="#fcfdfc"/><stop offset=".3" stop-color="#f3f6f4"/><stop offset=".38" stop-color="#e4ece6"/><stop offset=".47" stop-color="#cfddd3"/><stop offset=".52" stop-color="#b4c9ba"/><stop offset=".58" stop-color="#92b29b"/><stop offset=".65" stop-color="#6b9677"/><stop offset=".84" stop-color="#548662"/><stop offset="1" stop-color="#467c55"/></linearGradient></defs><rect class="cls-1" x="-3.32" y="2.67" width="3498.4" height="285.9"/><polygon class="cls-5" points="3496.38 5.57 2813.98 5.57 2637.98 285.57 3496.38 285.57 3496.38 5.57"/><polygon class="cls-4" points="3507.4 289.13 2793.55 289.13 2609.48 5.57 3507.4 5.57 3507.4 289.13"/><path class="cls-3" d="m2983.02,222.68c1.79.9,3.36,1.79,5.38,2.69,2.69,1.57,5.15,2.91,7.84,4.26,3.81,2.02,7.39,4.03,10.75,5.82l-17.03-16.35c-1.57,1.12-3.58,2.46-6.94,3.58h0Z"/><path class="cls-3" d="m2931.27,179c2.46,6.27,7.62,11.87,17.7,20.83,1.79,1.57,4.26,3.58,6.94,5.38.45.45,3.14,2.24,5.38,4.03,14.56-10.31,32.04-25.99,32.04-43.46v-99.24l-20.39,7.39v74.6c0,16.13.22,28.23-11.65,43.46-12.32-15.01-12.1-26.43-12.1-43.46v-66.09l-20.39,7.39v55.33c-.22,13.67-.67,26.21,2.46,33.83Z"/><path class="cls-3" d="m3024.69,54.89l-26.43,9.63v80.65c0,17.92.45,25.54-2.46,33.83-3.36,9.86-10.53,18.15-21.28,26.21h0c-2.46,2.02-5.6,4.26-9.18,6.5,3.36,2.46,8.29,5.6,13.89,8.74,1.57-.9,7.62-4.03,13.22-7.39.67-.45,1.12-.67,1.34-.67,31.36-19.94,30.92-36.29,30.69-66.31l.22-91.18h0Z"/><path class="cls-3" d="m2957.71,212.15s-5.38-3.81-7.62-5.6h0c-5.6-4.26-10.75-8.51-14.79-12.55-4.48-4.7-7.84-9.63-9.41-14.79-2.69-8.51-2.24-21.73-2.24-33.83v-53.54l-26.43,9.63v45.03c0,23.52,0,37.64,12.55,51.53,2.24,2.69,9.86,10.98,24.87,19.71-6.94,6.5-13.67,12.55-19.94,17.92,3.36-1.79,6.94-3.81,10.75-5.82,5.6-2.91,10.75-5.82,15.68-8.51,1.57.9,3.14,1.57,4.7,2.24l-26.66,15.46,18.59-3.58,23.07-5.6c11.43,4.03,25.54,7.17,41.44,9.18l-8.96-4.93c-8.51-4.93-22.63-12.99-35.62-21.95h0Z"/><rect class="cls-3" x="3202.56" y="138.67" width="15.01" height="63.85"/><path class="cls-3" d="m3106.46,167.35c0,17.03-4.03,23.52-17.47,23.52s-17.47-6.5-17.47-23.52v-49.06h-15.68v49.73c0,24.19,11.65,36.29,33.16,36.29s32.93-12.1,32.93-36.29v-49.73h-15.46v49.06Z"/><path class="cls-3" d="m3255.21,122.54h-15.01v16.13h-11.87v10.98l11.87.9v35.17c0,13.44,4.93,18.37,17.47,18.37,5.6,0,11.2-1.34,12.99-1.79v-10.08c-1.79.22-6.27.45-9.63.45-5.38,0-5.82-1.12-5.82-6.94v-34.95h15.46v-12.1h-15.46v-16.13h0Z"/><path class="cls-3" d="m3375.06,149.87c3.58,0,8.96.45,17.03.9v-11.43c-2.91-.9-10.08-2.46-19.71-2.46-18.37,0-26.88,10.08-26.88,29.57v8.06c0,19.27,8.51,29.57,26.88,29.57,9.86,0,16.8-1.57,19.71-2.46v-11.43c-8.06.67-13.67,1.12-17.03,1.12-9.18,0-14.56-3.14-14.56-16.8v-8.06c0-13.44,5.38-16.58,14.56-16.58h0Z"/><path class="cls-3" d="m3169.41,137.1c-7.17,0-14.11,2.69-21.06,6.72v-5.15h-14.34v63.85h14.79v-48.61c6.72-2.69,12.55-4.26,16.8-4.26,7.39,0,8.96,3.14,8.96,12.32v40.55h15.01v-40.55c.22-14.34-2.24-24.87-20.16-24.87h0Z"/><path class="cls-3" d="m3306.96,137.1c-19.04,0-28.9,10.53-28.9,31.81v4.03c0,22.4,8.06,31.36,31.14,31.36,10.75,0,19.04-1.57,23.75-2.69v-11.2c-8.29.9-16.35,1.57-23.07,1.57-15.68,0-17.03-6.05-17.03-15.23v-1.12h42.79v-4.93c.22-19.71-7.39-33.6-28.67-33.6h0Zm13.89,28.45h-27.55v-.9c0-7.17,1.79-15.46,13.89-15.46s13.67,8.06,13.67,15.46v.9h0Z"/><rect class="cls-3" x="3202.56" y="114.48" width="15.46" height="14.34"/><rect class="cls-2" x="2568.73" y="-283.8" width="609.34" height="318.34"/></svg>