<?xml version="1.0" encoding="UTF-8"?><svg id="Layer_1" xmlns="http://www.w3.org/2000/svg" xmlns:xlink="http://www.w3.org/1999/xlink" height="100%" width="100%" viewBox="0 0 1170 100"  preserveAspectRatio="none"><defs><style>.cls-1{fill:#042827;}.cls-2{fill:#084948;}.cls-3{fill:none;}.cls-4{fill:#0d504f;}.cls-5{fill:#083533;}.cls-6{fill:url(#linear-gradient);}.cls-7{fill:#325150;isolation:isolate;opacity:.5;}.cls-8{fill:#093d3b;}</style><linearGradient id="linear-gradient" x1="0" y1="0" x2="800" y2="100" gradientUnits="userSpaceOnUse"><stop offset="0%" stop-color="#fff" stop-opacity="1"/><stop offset="70%" stop-color="#fff" stop-opacity="0.8"/><stop offset="100%" stop-color="#fff" stop-opacity="0.0"/></linearGradient></defs><rect class="cls-3" x="1.59" y="-3.56" width="1170" height="92.3"/><rect class="cls-4" x=".59" y=".09" width="1170" height="100"/><rect class="cls-3" x=".59" y="-2.21" width="1170" height="92.3"/><polygon class="cls-2" points="787.09 40.39 626.69 100 398.19 100 189.99 .09 736.39 .09 787.09 40.39"/><polygon class="cls-5" points="570 100 849.79 100 787.09 40.39 626.69 90.09"/><polygon class="cls-8" points="736.39 .09 787.09 40.39 917.19 .09 736.39 .09"/><polygon class="cls-7" points="917.19 .09 787.09 40.39 849.79 90.09 1170.59 90.09 1170.59 .09 917.19 .09"/><polygon class="cls-1" points="917.19 .09 787.09 40.39 849.79 100 1170.59 100 1170.59 .09 917.19 .09"/><rect class="cls-6" x="0" y="0" width="1170" height="100"/></svg>