<?xml version="1.0" encoding="UTF-8"?><svg id="Layer_1" xmlns="http://www.w3.org/2000/svg" viewBox="0 0 163.2 90"><defs><style>.cls-1{fill:none;}.cls-1,.cls-2{stroke-width:0px;}.cls-2{fill:#fff;}</style></defs><rect class="cls-1" x="86.81" y="3.73" width="173.1" height="82.9"/><path class="cls-2" d="m121.31,65.93h1.7v7.1h-1.7v-7.1Zm0-1.1h1.7v-1.6h-1.7v1.6Zm-3.6.9c-.8,0-1.5.3-2.3.7v-.6h-1.6v7.1h1.6v-5.3c.8-.3,1.4-.5,1.8-.5.8,0,1,.3,1,1.4v4.5h1.7v-4.5c0-1.6-.3-2.8-2.2-2.8h0Zm-1.1-19.2c.6,1.5,1.8,2.8,4.2,5,.5.4,1,.8,1.6,1.3.1.1.7.6,1.3.9,3.5-2.5,7.6-6.2,7.6-10.4v-23.7l-4.9,1.8v17.8c0,3.9.1,6.7-2.8,10.3-2.9-3.6-2.9-6.3-2.9-10.3v-15.8l-4.9,1.8v13.2c.2,3.2.1,6.2.8,8.1h0Zm-5.9,22.6c0,1.9-.5,2.6-1.9,2.6s-1.9-.7-1.9-2.6v-5.4h-1.7v5.5c0,2.7,1.3,4,3.7,4s3.6-1.3,3.6-4v-5.5h-1.7v5.4h-.1Zm16.3-16.4h0c-.6.5-1.3,1-2.2,1.6.8.6,2,1.3,3.3,2.1.4-.2,1.8-.9,3.2-1.7.1-.1.2-.1.3-.2,7.5-4.8,7.3-8.7,7.3-15.8v-21.8l-6.3,2.3v19.2c0,4.2.1,6.1-.6,8.1-.8,2.3-2.5,4.3-5,6.2h0Zm4.5,6.9c-2.1-1.2-5.5-3.1-8.5-5.3,0,0-1.3-.9-1.8-1.3h0c-1.3-1-2.6-2-3.5-3-1-1.1-1.9-2.3-2.3-3.5-.6-2-.6-5.2-.6-8.1v-12.8l-6.3,2.3v10.7c0,5.6,0,9,3,12.3.5.6,2.4,2.6,5.9,4.7-1.7,1.5-3.3,3-4.7,4.3.8-.4,1.7-.9,2.6-1.4,1.3-.7,2.5-1.4,3.7-2,.4.2.8.4,1.1.6l-6.3,3.7,4.4-.9,5.5-1.3c2.7.9,6.1,1.7,9.9,2.2l-2.1-1.2h0Zm-2.5-2.7c.4.2.8.4,1.3.7.6.3,1.2.7,1.8,1,.9.5,1.8,1,2.6,1.4l-4.1-3.9c-.3.2-.9.5-1.6.8h0Zm8.1,12.1v.9c0,2.1.9,3.3,3,3.3,1.1,0,1.8-.2,2.2-.3v-1.2c-.9.1-1.5.1-1.9.1-1,0-1.6-.3-1.6-1.9v-.9c0-1.5.6-1.8,1.6-1.8.4,0,1,0,1.9.1v-1.2c-.3-.1-1.1-.3-2.2-.3-2-.1-3,1-3,3.2Zm26.1-58.1c-.2,0-.4.2-.4.4v68.7c0,.2.2.4.4.4s.4-.2.4-.4V11.33c0-.2-.2-.4-.4-.4h0Zm-36,53.2h-1.7v1.8h-1.3v1.2l1.3.1v3.9c0,1.5.5,2,1.9,2,.6,0,1.2-.2,1.4-.2v-1.1c-.2,0-.7.1-1.1.1-.6,0-.7-.1-.7-.8v-3.9h1.7v-1.3h-1.7l.2-1.8h0Zm8.9,5.3v.6h-4.7v.1c0,1,.2,1.7,1.9,1.7.7,0,1.6-.1,2.5-.2v1.2c-.5.1-1.4.3-2.6.3-2.5,0-3.4-1-3.4-3.4v-.4c0-2.4,1.1-3.5,3.2-3.5,2.2,0,3.1,1.5,3.1,3.6h0Zm-1.7-.6c0-.8-.2-1.7-1.5-1.7s-1.5.9-1.5,1.7v.1l3-.1h0Zm88.1.8h-3.4c.1,1.8.9,2.3,1.9,2.3.8,0,1.2-.3,1.5-.6l.1.1c-.3,1.1-1.2,1.8-2.5,1.8-1.8,0-2.8-1.5-2.8-3.2,0-1.9,1.1-3,2.9-3,1.4.1,2.3,1.2,2.3,2.6Zm-1.8-.8c0-1.1-.3-1.4-.7-1.4-.6,0-.9.8-.9,1.8h1.6v-.4Zm8.2-.1c0-1-.7-1.6-1.7-1.6s-1.4.6-1.7,1.1h-.1v-1.1l-2.1.6v.1c.2.5.3.9.3,1.8v1.5c0,1-.1,1.5-.1,2v.1h2.1v-.1c-.1-.5-.1-1-.1-2v-2.3c.1-.3.4-.8.8-.8.5,0,.8.4.8.9v2.2c0,.9-.1,1.4-.1,2v.1h2.2v-.1c-.1-.5-.2-1-.2-2l-.1-2.4h0Zm7-2.1h0l.1,1.4h-.1l-1.4-.1c.4.3.6.8.6,1.4,0,1.3-.9,2.1-2.6,2.1-.4,0-.8-.1-1.2-.2-.1.1-.1.2-.1.3,0,.3.3.4,1.1.5l1.3.2c1.1.1,2,.6,2,1.6,0,1.3-1.5,2-3.4,2-1.8,0-2.9-.4-2.9-1.3,0-.6.7-.9,1.3-1-.5-.2-.8-.5-.8-1.1,0-.7.5-1.2,1.1-1.5-.7-.4-1-1-1-1.8,0-1.2,1.1-2.1,2.6-2.1.8,0,1.3.2,1.7.5l1.7-.9h0Zm-4.7,7c-.1.2-.2.4-.2.6,0,.8.8,1.1,1.9,1.1,1,0,1.7-.3,1.7-.8s-.5-.6-1.6-.7l-1-.1c-.3.1-.5,0-.8-.1h0Zm2.2-4.4c0-1.2-.2-1.8-.8-1.8s-.7.5-.7,1.8.2,1.8.7,1.8.8-.6.8-1.8Zm8.2,3.5c-.3.4-.6.6-1.2.6-.7,0-1.1-.4-1.2-.9-.4.5-.9.9-1.6.9-.8,0-1.3-.6-1.3-1.4,0-1.6,1.5-1.9,2.9-2.2v-.2c0-.9-.3-1.4-1.1-1.4-.4,0-1,.2-1.4.5l-.1-.1c.6-.8,1.3-1.4,2.6-1.4s1.9.7,1.9,2.1v2.6c0,.6.2.8.5.9h0Zm-2.5-2.6c-.8.2-1.2.6-1.2,1.3,0,.4.2.8.7.8.2,0,.3,0,.5-.1v-2Zm-41.1-15.4c-3.9-12.6-7.2-25.1-10-37.7,0-.1.1-.1.1,0,6.1,6.5,11.2,11.2,17.3,15,10.2-1.7,22.7-7.8,29.9-15.1,0,0,.1,0,.1.1-2.6,12.4-5.6,24-8.8,34.3-7.9,2.8-15.4,2.7-20.5,2.3-.1,0-.1.1,0,.1,3.1,1.7,6.5,3,10.6,4.2v.1c-7.5-.4-14.2-1.6-18.7-3.3h0Zm30.5-12.6c-8.6,2.8-16.8,2.2-23,1-.1,0-.1.1,0,.1,4.1,2.7,8.3,4.7,12.2,5.8,3.9-1.8,7.7-4.2,10.8-6.9.1.1.1,0,0,0h0Zm-22.1-9.6c3.7,2.2,7.8,4.1,12.5,6,5.1-2.3,9-5.2,13-8.7,0,0,0-.1-.1-.1-7.7,3.3-16.9,4-25.4,2.8-.1-.1-.1,0,0,0h0Zm-1.7,10.2c5.2-.9,9.5-2.1,13.2-3.8.1,0,0-.1,0-.1-8.6-.6-17.4-2.5-25.7-7.2q-.1,0-.1.1c3.2,3.7,7.7,7.7,12.6,11h0Zm.6,10.4c3.6-.6,7.6-1.9,11.5-3.7.1,0,0-.1,0-.1-7.2.2-14.4-1.2-21-4.2q-.1,0-.1.1c3.3,3.5,6.3,6,9.6,7.9h0Zm4.7,14.2h-2.1v.1c.1.3.2.7.2,1.4v2.8c-.2.4-.5.6-.8.6-.5,0-.7-.4-.7-.8v-4h-1.9v.1c.1.3.1.7.1,1.4v2.7c0,1.1.6,1.8,1.6,1.8s1.7-.8,1.9-1.3h0v1.1h2.1v-.1c-.2-.7-.2-1.1-.2-2.3l-.2-3.5h0Zm-.6-1.1l.1-.5h-4.3l-.1.5h4.3Zm-19.8,1l-.3-2.6c-.7,0-1.4.1-2.1.1h-2.9c-.8,0-1.4-.1-2.1-.1l-.3,2.6h.2c1.2-1.8,1.8-2.1,2.3-2.1h.4v5.6c0,1.1,0,1.6-.2,2.4v.1h2.5v-.1c-.2-.8-.2-1.3-.2-2.4v-5.6h.4c.5,0,1.1.4,2.3,2.1h0Zm4.9,2.4h-3.4c.1,1.8.9,2.3,1.9,2.3.8,0,1.2-.3,1.5-.6l.1.1c-.3,1.1-1.2,1.8-2.5,1.8-1.8,0-2.8-1.5-2.8-3.2,0-1.9,1.1-3,2.9-3,1.5.1,2.4,1.2,2.3,2.6Zm-1.8-.8c0-1.1-.3-1.4-.7-1.4-.6,0-.9.8-.9,1.8h1.6v-.4Zm22,.3l.4-.4c.5-.5,1-.8,1.8-1.4v-.1h-2l-.4,1.6-1.2,1v-5.7l-2.1.7h0c.2.5.2.9.2,1.8v4.7c0,.9,0,1.3-.1,1.8v.1h2.1v-.1c-.1-.4-.1-.9-.1-1.8v-1.1l1.6,2.9h2.3v-.1c-.3-.4-.5-.6-.8-1.1l-1.7-2.8h0Zm-10.9-2.1c0,1.5-1,2.7-3.3,2.7h-.6v1c0,1.1,0,1.6.2,2.4v.1h-2.5v-.1c.2-.8.2-1.3.2-2.4v-3.6c0-1.1,0-1.6-.2-2.4v-.1h3.1c2.3,0,3.1,1,3.1,2.4h0Zm-2.1,0c0-1.1-.6-1.9-1.5-1.9h-.3v4.2h.3c1.1,0,1.5-1.3,1.5-2.3Z"/></svg>