<?xml version="1.0" encoding="UTF-8" standalone="no"?>
<!DOCTYPE svg PUBLIC "-//W3C//DTD SVG 20010904//EN"
              "http://www.w3.org/TR/2001/REC-SVG-20010904/DTD/svg10.dtd">

<svg xmlns="http://www.w3.org/2000/svg"
     width="8.4686mm" height="8.4686mm"
     viewBox="0 0 24 24">
  <path id="Selezione #1"
        fill="none" stroke="black" stroke-width="1"
        d="M 0.00,24.00
           C 6.18,22.50 17.82,22.50 24.00,24.00
             24.00,24.00 24.00,7.00 24.00,7.00
             23.84,-1.24 21.24,-0.26 7.00,0.00
             5.38,0.03 2.94,-0.04 1.60,1.02
             -0.10,2.37 0.04,5.05 0.00,7.00
             0.00,7.00 0.00,24.00 0.00,24.00 Z
           M 11.00,1.00
           C 11.00,1.00 11.00,22.00 11.00,22.00
             11.00,22.00 1.00,22.00 1.00,22.00
             1.00,22.00 1.00,1.00 1.00,1.00
             1.00,1.00 11.00,1.00 11.00,1.00 Z
           M 23.00,1.00
           C 23.00,1.00 23.00,22.00 23.00,22.00
             23.00,22.00 13.00,22.00 13.00,22.00
             13.00,22.00 13.00,1.00 13.00,1.00
             13.00,1.00 23.00,1.00 23.00,1.00 Z
           M 3.00,3.00
           C 3.00,3.00 9.00,4.00 9.00,4.00
             9.00,4.00 3.00,3.00 3.00,3.00 Z
           M 15.00,3.00
           C 15.00,3.00 20.00,4.00 20.00,4.00
             20.00,4.00 15.00,3.00 15.00,3.00 Z
           M 3.00,6.00
           C 3.00,6.00 9.00,7.00 9.00,7.00
             9.00,7.00 3.00,6.00 3.00,6.00 Z
           M 15.00,6.00
           C 15.00,6.00 20.00,7.00 20.00,7.00
             20.00,7.00 15.00,6.00 15.00,6.00 Z
           M 3.00,9.00
           C 3.00,9.00 9.00,10.00 9.00,10.00
             9.00,10.00 3.00,9.00 3.00,9.00 Z
           M 15.00,9.00
           C 15.00,9.00 20.00,10.00 20.00,10.00
             20.00,10.00 15.00,9.00 15.00,9.00 Z
           M 3.00,12.00
           C 3.00,12.00 9.00,13.00 9.00,13.00
             9.00,13.00 3.00,12.00 3.00,12.00 Z
           M 15.00,12.00
           C 15.00,12.00 20.00,13.00 20.00,13.00
             20.00,13.00 15.00,12.00 15.00,12.00 Z
           M 3.00,15.00
           C 3.00,15.00 9.00,16.00 9.00,16.00
             9.00,16.00 3.00,15.00 3.00,15.00 Z
           M 15.00,15.00
           C 15.00,15.00 20.00,16.00 20.00,16.00
             20.00,16.00 15.00,15.00 15.00,15.00 Z
           M 3.00,18.00
           C 3.00,18.00 9.00,19.00 9.00,19.00
             9.00,19.00 3.00,18.00 3.00,18.00 Z
           M 15.00,18.00
           C 15.00,18.00 20.00,19.00 20.00,19.00
             20.00,19.00 15.00,18.00 15.00,18.00 Z" />
</svg>
