<?xml version="1.0" encoding="UTF-8"?><svg id="Layer_1" xmlns="http://www.w3.org/2000/svg" height="100%" width="100%" viewBox="0 0 1170 100"  preserveAspectRatio="none"><defs><style>.cls-1{fill:#042827;}.cls-2{fill:#084948;}.cls-3{fill:none;}.cls-4{fill:#0d504f;}.cls-5{fill:#083533;}.cls-6{fill:#325150;isolation:isolate;opacity:.5;}.cls-7{fill:#093d3b;}</style></defs><rect class="cls-4" x="0" y="0" width="1170" height="100%"/><rect class="cls-3" x=".35" y="-2.47" width="100%" height="92.5"/><polygon class="cls-2" points="786.85 40.22 626.45 105 397.95 105 189.75 -.17 736.15 -.17 786.85 40.22"/><polygon class="cls-5" points="570 105 849.55 105 786.85 40.22 626.45 105"/><polygon class="cls-7" points="736.15 -.17 786.85 40.22 916.95 -.17 736.15 -.17"/><polygon class="cls-6" points="916.95 -.17 786.85 40.22 849.55 90.03 1170.35 90.03 1170.35 -.17 916.95 -.17"/><polygon class="cls-1" points="916.95 -.17 786.85 40.22 849.55 105 1170.35 105 1170.35 -.17 916.95 -.17"/></svg>