<?xml version="1.0" encoding="UTF-8"?><svg id="Layer_1" xmlns="http://www.w3.org/2000/svg" xmlns:xlink="http://www.w3.org/1999/xlink" viewBox="0 0 3498.35 285.88"><defs><style>.cls-1{fill:url(#linear-gradient);}.cls-1,.cls-2,.cls-3,.cls-4{stroke-width:0px;}.cls-2{fill:#fff;}.cls-3{fill:#012b2a;}.cls-4{fill:#97d16d;}</style><linearGradient id="linear-gradient" x1="0" y1="1247.12" x2="3498.35" y2="1247.12" gradientTransform="translate(0 1390.06) scale(1 -1)" gradientUnits="userSpaceOnUse"><stop offset="0" stop-color="#fff"/><stop offset=".2" stop-color="#fcfdfc"/><stop offset=".33" stop-color="#f3f6f4"/><stop offset=".44" stop-color="#e4ece6"/><stop offset=".54" stop-color="#cfddd3"/><stop offset=".63" stop-color="#b4c9ba"/><stop offset=".71" stop-color="#92b29b"/><stop offset=".79" stop-color="#6b9677"/><stop offset=".84" stop-color="#548662"/><stop offset="1" stop-color="#467c55"/></linearGradient></defs><rect class="cls-1" width="3498.35" height="285.88"/><polygon class="cls-4" points="3499.68 2.94 3081.58 2.94 2973.75 285.88 3499.68 285.88 3499.68 2.94"/><polygon class="cls-3" points="3501.68 285.88 3085.74 285.88 2978.47 1.15 3501.68 1.15 3501.68 285.88"/><path class="cls-2" d="m3322.6,195.34c1.62.81,3.05,1.62,4.67,2.44,2.44,1.42,4.67,2.64,7.11,3.86,3.45,1.83,6.7,3.65,9.75,5.28l-15.43-14.82c-1.22.81-3.25,2.03-6.09,3.25h0Z"/><path class="cls-2" d="m3275.69,155.55c2.23,5.69,6.9,10.76,16.04,18.88,1.62,1.42,3.86,3.25,6.29,4.87.41.41,2.84,2.03,4.87,3.65,13.2-9.34,29.04-23.55,29.04-39.39V53.62l-18.48,6.7v67.61c0,14.62.41,25.58-10.56,39.39-11.17-13.6-10.96-23.96-10.96-39.39v-59.9l-18.48,6.7v50.15c-.41,12.39-.61,23.76,2.23,30.66Z"/><path class="cls-2" d="m3360.16,43.26l-23.96,8.73v73.1c0,16.24.41,23.15-2.23,30.66-3.05,8.93-9.54,16.45-19.29,23.76h0c-2.23,1.83-5.08,3.86-8.32,5.89,3.05,2.23,7.51,5.08,12.59,7.92,1.42-.81,6.9-3.65,11.98-6.7.61-.41,1.02-.61,1.22-.61,28.43-18.07,27.82-33.1,27.82-60.1l.2-82.64h0Z"/><path class="cls-2" d="m3299.65,185.6s-4.87-3.45-6.9-5.08h0c-5.08-3.86-9.75-7.72-13.4-11.37-4.06-4.26-7.11-8.73-8.53-13.4-2.44-7.72-2.03-19.7-2.03-30.66v-48.53l-24.16,8.73v40.81c0,21.32,0,34.11,11.37,46.7,2.03,2.44,8.93,9.95,22.54,17.87-6.5,5.89-12.39,11.37-18.07,16.24,3.05-1.62,6.5-3.45,9.75-5.28,5.08-2.64,9.75-5.28,14.21-7.72,1.42.81,2.84,1.42,4.26,2.03l-23.96,14.01,16.85-3.25,20.91-5.08c10.36,3.65,22.94,6.5,37.56,8.32l-8.12-4.47c-7.92-4.47-20.51-11.78-32.28-19.9h0Z"/><rect class="cls-2" x="3290.72" y="228.44" width="5.89" height="24.97"/><path class="cls-2" d="m3253.15,239.61c0,6.7-1.62,9.14-6.9,9.14s-6.7-2.44-6.7-9.14v-19.09h-6.09v19.49c0,9.54,4.47,14.21,12.99,14.21s12.79-4.67,12.79-14.21v-19.49h-6.09v19.09Z"/><path class="cls-2" d="m3311.22,222.15h-5.89v6.29h-4.67v4.26l4.67.41v13.81c0,5.28,2.03,7.11,6.9,7.11,2.23,0,4.26-.61,5.08-.61v-4.06c-.61,0-2.44.2-3.86.2-2.23,0-2.23-.41-2.23-2.64v-13.6h6.09v-4.67h-6.09v-6.5h0Z"/><path class="cls-2" d="m3357.92,232.7c1.42,0,3.45.2,6.7.41v-4.47c-1.22-.41-3.86-1.02-7.72-1.02-7.11,0-10.56,3.86-10.56,11.57v3.05c0,7.51,3.25,11.57,10.56,11.57,3.86,0,6.5-.61,7.72-1.02v-4.47c-3.05.2-5.28.41-6.7.41-3.65,0-5.69-1.22-5.69-6.5v-3.05c0-5.28,2.03-6.5,5.69-6.5h0Z"/><path class="cls-2" d="m3277.72,227.83c-2.84,0-5.48,1.02-8.12,2.64v-2.03h-5.69v24.97h5.89v-18.88c2.64-1.02,4.87-1.62,6.5-1.62,2.84,0,3.45,1.22,3.45,4.87v15.84h5.89v-15.84c0-5.89-1.02-9.95-7.92-9.95h0Z"/><path class="cls-2" d="m3331.53,227.83c-7.51,0-11.17,4.06-11.17,12.39v1.62c0,8.73,3.25,12.18,12.18,12.18,4.06,0,7.31-.61,9.34-1.02v-4.26c-3.25.41-6.29.61-8.93.61-6.09,0-6.7-2.44-6.7-5.89v-.41h16.65v-2.03c-.2-7.72-3.25-13.2-11.37-13.2h0Zm5.28,11.17h-10.76v-.41c0-2.84.61-6.09,5.48-6.09s5.28,3.05,5.28,6.09v.41h0Z"/><rect class="cls-2" x="3290.72" y="218.9" width="6.09" height="5.69"/></svg>